<?xml version="1.0" encoding="UTF-8" standalone="no"?>
<!-- Created with Inkscape (http://www.inkscape.org/) -->

<svg
   width="256"
   height="256"
   viewBox="0 0 256 256"
   version="1.1"
   id="svg1"
   inkscape:version="1.4.3 (0d15f75042, 2025-12-25)"
   sodipodi:docname="icon.svg"
   xml:space="preserve"
   inkscape:export-filename="../Coding/C/typesetter-project/icon.png"
   inkscape:export-xdpi="192"
   inkscape:export-ydpi="192"
   xmlns:inkscape="http://www.inkscape.org/namespaces/inkscape"
   xmlns:sodipodi="http://sodipodi.sourceforge.net/DTD/sodipodi-0.dtd"
   xmlns="http://www.w3.org/2000/svg"
   xmlns:svg="http://www.w3.org/2000/svg"><sodipodi:namedview
     id="namedview1"
     pagecolor="#ffffff"
     bordercolor="#000000"
     borderopacity="0.25"
     inkscape:showpageshadow="2"
     inkscape:pageopacity="0.0"
     inkscape:pagecheckerboard="0"
     inkscape:deskcolor="#d1d1d1"
     inkscape:document-units="px"
     inkscape:zoom="1.0930419"
     inkscape:cx="99.264264"
     inkscape:cy="111.15768"
     inkscape:window-width="2560"
     inkscape:window-height="1384"
     inkscape:window-x="0"
     inkscape:window-y="0"
     inkscape:window-maximized="1"
     inkscape:current-layer="g1" /><defs
     id="defs1" /><g
     inkscape:label="Layer 1"
     inkscape:groupmode="layer"
     id="layer1"><g
       id="g3"
       transform="translate(-253.44347,311.7026)"><text
         xml:space="preserve"
         style="font-size:50.8px;line-height:normal;font-family:'Adelphe Floreal';-inkscape-font-specification:'Adelphe Floreal';text-align:center;text-decoration-color:#000000;letter-spacing:0.264583px;writing-mode:lr-tb;direction:ltr;text-anchor:middle;white-space:pre;fill:none;stroke:#ffffff;stroke-width:0.529167;paint-order:fill markers stroke"
         x="150.59167"
         y="95.798294"
         id="text1"
         transform="skewX(-20.906487)"><tspan
           sodipodi:role="line"
           id="tspan1"
           style="fill:#000000;fill-opacity:1;stroke:none;stroke-width:0.529167"
           x="150.72397"
           y="95.798294">A</tspan></text><path
         style="font-size:50.8px;font-family:'Adelphe Floreal';-inkscape-font-specification:'Adelphe Floreal';text-align:center;letter-spacing:0.264583px;text-anchor:middle;white-space:pre;stroke-width:0.529167;paint-order:fill markers stroke"
         d="m 129.13049,67.401055 c 0,-1.490133 -0.0847,-2.624666 -0.254,-3.403599 -0.16933,-0.8128 -0.4572,-1.388533 -0.8636,-1.7272 -0.37253,-0.372533 -0.94826,-0.626533 -1.7272,-0.762 v -1.27 h 16.9672 l 1.4732,9.601199 -1.3208,0.3556 c -1.25307,-2.438399 -2.77707,-4.250266 -4.572,-5.435599 -1.76107,-1.2192 -3.99627,-1.8288 -6.7056,-1.8288 h -2.9972 v 13.207999 h 1.3716 c 2.032,0 3.53907,-0.491067 4.5212,-1.4732 1.016,-1.016 1.64253,-2.3368 1.8796,-3.9624 h 1.3716 v 14.1224 h -1.3716 c -0.27093,-1.8288 -0.89747,-3.285067 -1.8796,-4.3688 -0.98213,-1.083733 -2.4892,-1.6256 -4.5212,-1.6256 h -1.3716 v 9.8044 c 0,1.4224 0.18627,2.523067 0.5588,3.302 0.37253,0.745067 0.89747,1.286933 1.5748,1.6256 0.7112,0.338667 1.69333,0.626533 2.9464,0.8636 v 1.3716 h -7.9248 v -1.3716 c 0.8128,-0.1016 1.40547,-0.321733 1.778,-0.6604 0.4064,-0.372533 0.67734,-0.931333 0.8128,-1.6764 0.16934,-0.778933 0.254,-1.9304 0.254,-3.4544 z"
         id="text2"
         aria-label="F"
         sodipodi:nodetypes="sccccccccsccssccccsscsccccccccss" /></g><g
       id="g1"
       transform="translate(-4.082829,-2.2682513)"><rect
         style="fill:#ebebeb;fill-opacity:1;stroke:none;stroke-width:8;paint-order:fill markers stroke"
         id="rect2"
         width="256"
         height="256"
         x="4.082829"
         y="2.2682514"
         ry="0" /><rect
         style="display:none;fill:#000000;fill-opacity:0.120516;stroke:none;stroke-width:0.529167;stroke-opacity:1;paint-order:fill markers stroke"
         id="rect1"
         width="224"
         height="224"
         x="-244.08282"
         y="18.268251"
         transform="scale(-1,1)" /><g
         id="g4"
         transform="translate(-4)"><path
           style="font-size:240.302px;font-family:'Adelphe Floreal';-inkscape-font-specification:'Adelphe Floreal';text-align:center;letter-spacing:1.25157px;text-anchor:middle;white-space:pre;stroke-width:0.529169;paint-order:fill markers stroke"
           d="m 111.19716,191.29627 q 7.92996,-2.16272 12.736,-7.92997 5.04635,-6.00755 9.13148,-16.58083 L 186.65199,29.573022 h 20.42567 l 50.46342,135.290028 q 4.56574,11.7748 9.37178,18.02265 4.80604,6.24785 11.29419,8.41057 v 6.48815 h -73.29211 v -6.48815 q 7.20906,-0.4806 11.05389,-5.04634 4.08514,-4.56574 4.08514,-12.2554 0,-6.00755 -2.40303,-12.49571 L 212.124,146.11949 h -54.06795 l -6.72846,18.02265 q -1.92241,5.76725 -1.92241,9.61208 0,14.17782 21.62718,17.54205 v 6.48815 h -59.8352 z m 96.1208,-57.91278 -22.10779,-60.796409 -22.58838,60.796409 z"
           id="text3"
           transform="matrix(0.94497702,0,-0.36097419,1.0582268,0,0)"
           aria-label="A" /><g
           id="text4"
           style="opacity:1"
           transform="scale(1.00004,0.99996001)"><path
             style="font-style:italic;font-weight:500;font-size:120.98px;font-family:'CMU Serif';-inkscape-font-specification:'CMU Serif Medium Italic';text-align:center;letter-spacing:0.630106px;baseline-shift:baseline;text-anchor:middle;white-space:pre;display:inline;overflow:visible;vector-effect:none;paint-order:fill markers stroke;enable-background:accumulate;stop-color:#000000;stop-opacity:1"
             d="m 186.09489,234.03858 q 0,-3.01268 1.83124,-4.84392 1.77217,-1.83124 4.19413,-1.83124 1.59496,0 2.83547,1.00423 1.29959,1.0633 1.29959,2.89454 0,2.06753 -1.41773,3.72155 -1.35866,1.7131 -3.89877,2.18567 1.59495,2.18568 4.84393,2.18568 4.48949,0 6.85238,-10.39672 1.4768,-5.19836 3.42619,-15.00436 l 8.80177,-45.13121 h -7.50218 q -3.01269,0 -3.01269,-1.35866 0,-1.7131 0.70887,-2.06753 0.76794,-0.35443 2.54011,-0.35443 h 8.03383 l 2.5401,-13.29126 q 4.13506,-19.84829 15.71323,-19.84829 4.01691,0 6.97052,2.12661 2.95362,2.1266 2.95362,5.84815 0,3.01269 -1.83124,4.84393 -1.83124,1.83124 -4.25321,1.83124 -1.59495,0 -2.83546,-1.00423 -1.24052,-1.0633 -1.24052,-2.89454 0,-2.06753 1.35866,-3.72156 1.41773,-1.71309 3.95784,-2.18567 -1.83124,-2.18567 -5.08021,-2.18567 -2.06753,0 -3.54434,2.06753 -1.41773,2.06752 -1.94938,3.83969 -0.47258,1.7131 -1.18145,5.02115 -1.47681,6.55702 -3.8397,19.55292 h 9.39249 q 1.18145,0 1.7131,0.0591 0.59072,0.0591 0.94516,0.47258 0.4135,0.35443 0.4135,1.0633 0,1.4768 -0.76794,1.83124 -0.70886,0.35443 -2.5401,0.35443 h -9.92415 l -8.44733,43.41812 q -0.70887,3.48526 -1.65402,6.79331 -0.88609,3.36712 -3.07176,9.39249 -2.18568,6.08444 -5.78908,9.80599 -3.54434,3.78063 -7.85661,3.78063 -3.72156,0 -6.67517,-2.1266 -3.01269,-2.1266 -3.01269,-5.84816 z"
             id="path4" /><path
             style="font-style:italic;font-weight:500;font-size:120.98px;font-family:'CMU Serif';-inkscape-font-specification:'CMU Serif Medium Italic';text-align:center;letter-spacing:0.630106px;baseline-shift:baseline;text-anchor:middle;white-space:pre;display:inline;overflow:visible;vector-effect:none;paint-order:fill markers stroke;enable-background:accumulate;stop-color:#000000;stop-opacity:1"
             d="m 233.88477,131.63867 c -3.93499,0 -7.26765,1.70486 -9.92579,5.0625 -2.65813,3.35764 -4.66349,8.35586 -6.04687,14.9961 v 0.002 l -2.5,13.07812 h -7.81445 c -1.19909,0 -2.07008,0.11017 -2.65235,0.37891 l -0.002,0.002 -0.004,0.002 c -0.31254,0.15627 -0.53137,0.4587 -0.66406,0.8457 -0.13269,0.387 -0.19141,0.8697 -0.19141,1.45898 0,0.55067 0.34583,1.00615 0.90821,1.25977 0.56237,0.25362 1.34502,0.36328 2.36914,0.36328 h 7.17969 l -8.74024,44.81641 0.002,-0.002 c -1.29884,6.53357 -2.44093,11.53144 -3.42187,14.98438 l -0.002,0.006 -0.002,0.008 c -0.78361,3.44792 -1.74458,6.02054 -2.85742,7.70898 -1.11284,1.68845 -2.34195,2.48047 -3.73633,2.48047 -1.9373,0 -3.31858,-0.65302 -4.32422,-1.82617 1.49508,-0.37069 2.73211,-1.04022 3.58399,-2.11328 0.97742,-1.14271 1.47656,-2.4522 1.47656,-3.88867 0,-1.28342 -0.47248,-2.34361 -1.39648,-3.09961 -0.87011,-0.70438 -1.88312,-1.0625 -3.00196,-1.0625 -1.68039,0 -3.15987,0.64547 -4.38281,1.9082 -1.27212,1.27213 -1.9082,2.96919 -1.9082,5.03125 0,2.55244 1.05713,4.60479 3.125,6.06446 2.0113,1.44747 4.29761,2.17382 6.82812,2.17382 2.95133,0 5.64788,-1.30329 8.04688,-3.86132 l 0.002,-0.002 c 2.43259,-2.51299 4.37919,-5.81465 5.8457,-9.89648 v -0.002 c 1.45725,-4.01739 2.48165,-7.14998 3.07618,-9.4082 l 0.002,-0.006 c 0.63135,-2.21033 1.18472,-4.48064 1.6582,-6.80859 l 8.40625,-43.20508 h 9.70508 c 1.23611,0 2.10011,-0.10666 2.6543,-0.38281 0.31696,-0.14799 0.5602,-0.41939 0.70703,-0.76953 0.14761,-0.35199 0.21094,-0.78363 0.21094,-1.29883 0,-0.51663 -0.16598,-0.95295 -0.49805,-1.2461 -0.2779,-0.31414 -0.65584,-0.5083 -1.0957,-0.55273 h -0.002 c -0.37584,-0.0417 -0.94907,-0.0605 -1.74023,-0.0605 h -9.07227 c 1.54047,-8.45614 2.8101,-14.93592 3.77735,-19.23047 l 0.002,-0.002 c 0.47145,-2.2001 0.8635,-3.86739 1.17578,-5 l 0.002,-0.002 c 2.4e-4,-8.4e-4 -2.3e-4,-0.003 0,-0.004 0.34432,-1.14523 0.97953,-2.4017 1.91211,-3.76172 0.94972,-1.32728 2.03769,-1.95117 3.32618,-1.95117 1.93395,0 3.3949,0.65462 4.53515,1.83203 -1.48876,0.3723 -2.73478,1.03923 -3.61719,2.10547 -0.94009,1.14447 -1.41992,2.45432 -1.41992,3.89063 0,1.28057 0.44999,2.33799 1.33399,3.0957 l 0.002,0.002 0.004,0.002 c 0.8701,0.70437 1.88312,1.0625 3.00195,1.0625 1.68133,0 3.17739,-0.64614 4.43945,-1.90821 1.27213,-1.27212 1.90821,-2.96918 1.90821,-5.03125 0,-2.55103 -1.03403,-4.602 -3.0625,-6.0625 -2.01523,-1.45097 -4.40037,-2.17578 -7.125,-2.17578 z m 0,0.5293 c 2.63124,0 4.89348,0.69166 6.8164,2.07617 1.90969,1.37497 2.8418,3.22178 2.8418,5.63281 0,1.95485 -0.58243,3.48868 -1.75195,4.65821 -1.17959,1.17958 -2.51845,1.75195 -4.06641,1.75195 -1.00684,0 -1.88462,-0.30995 -2.66797,-0.94336 -7.3e-4,-5.9e-4 -0.001,-0.001 -0.002,-0.002 -0.76563,-0.65936 -1.14258,-1.52972 -1.14258,-2.6875 0,-1.31983 0.42814,-2.4922 1.29883,-3.55274 0.90329,-1.09147 2.15714,-1.78954 3.80273,-2.0957 l 0.44531,-0.082 -0.29101,-0.34766 c -1.2703,-1.51615 -3.05789,-2.27929 -5.2832,-2.2793 -1.46655,0 -2.74129,0.75187 -3.75977,2.17774 l -0.002,0.002 -0.002,0.002 c -0.95637,1.3947 -1.61948,2.69774 -1.98437,3.91406 v 0.002 l -0.002,0.004 c -0.31765,1.15146 -0.71045,2.82716 -1.1836,5.03515 -0.98609,4.37839 -2.26635,10.89561 -3.8418,19.56055 l -0.0566,0.3125 h 9.70899 c 0.78322,0 1.35055,0.0196 1.68359,0.0566 l 0.002,0.002 h 0.002 c 0.33821,0.0338 0.57645,0.15562 0.76953,0.38086 l 0.0137,0.0156 0.0156,0.0137 c 0.20949,0.17957 0.32031,0.44019 0.32031,0.86133 0,0.46933 -0.0616,0.83533 -0.16992,1.09375 -0.10837,0.25842 -0.25086,0.4092 -0.44336,0.49805 l -0.004,0.002 -0.004,0.002 c -0.39106,0.19553 -1.21812,0.32617 -2.42188,0.32617 h -10.14258 l -8.48828,43.63086 c -0.47117,2.31636 -1.02045,4.57352 -1.64844,6.77149 l -0.002,0.004 v 0.002 c -0.58699,2.23053 -1.60882,5.3563 -3.06445,9.36914 v 0.002 c -1.44729,4.02891 -3.35973,7.26247 -5.73047,9.71094 l -0.002,0.002 v 0.002 c -2.32628,2.48137 -4.86654,3.69532 -7.66407,3.69532 -2.43064,0 -4.59517,-0.68923 -6.52148,-2.07618 l -0.002,-0.002 c -1.94906,-1.3758 -2.9004,-3.22121 -2.9004,-5.63086 0,-1.95484 0.58438,-3.48867 1.75391,-4.6582 h 0.002 l 0.002,-0.002 c 1.13956,-1.17755 2.45595,-1.75 4.0039,-1.75 1.00778,0 1.88407,0.31071 2.66797,0.94531 0.80792,0.6616 1.20117,1.52987 1.20117,2.6875 0,1.31788 -0.44381,2.48946 -1.35351,3.55078 l -0.004,0.002 -0.002,0.004 c -0.86325,1.08845 -2.09501,1.78571 -3.74024,2.0918 l -0.41406,0.0762 0.24805,0.33984 c 1.11373,1.52623 2.83328,2.29297 5.05859,2.29297 1.59862,0 3.00645,-0.93967 4.17774,-2.7168 1.16954,-1.77447 2.13674,-4.39561 2.92773,-7.87109 0.98812,-3.4782 2.1313,-8.48429 3.43164,-15.02539 l 8.86328,-45.44727 h -7.82226 c -0.98435,0 -1.70854,-0.11713 -2.15039,-0.3164 -0.44186,-0.19927 -0.59766,-0.42224 -0.59766,-0.77735 0,-0.55278 0.0585,-0.98688 0.16211,-1.28906 0.10294,-0.30025 0.23973,-0.45853 0.39844,-0.53906 0.44241,-0.20299 1.26277,-0.33008 2.42383,-0.33008 h 8.25195 l 2.58203,-13.50586 c 1.37329,-6.58959 3.36436,-11.5138 5.94336,-14.77148 2.57961,-3.25846 5.72597,-4.86133 9.50977,-4.86133 z"
             id="path5" /></g></g><path
         id="path35"
         d="m 74.082824,66.26827 v 0 a 27.732335,55.464608 0 0 0 -23.999699,47.99998 v 0 0 a 27.732335,55.464608 0 0 0 -24.0003,-47.99998 v 0 0 a 27.732335,55.464608 0 0 0 24.0003,-48.000019 v 0 0 A 27.732335,55.464608 0 0 0 74.082824,66.26827 Z"
         style="font-variation-settings:normal;vector-effect:none;fill:#000000;fill-opacity:1;stroke:none;stroke-width:0.0700042;stroke-linecap:round;stroke-linejoin:miter;stroke-miterlimit:4;stroke-dasharray:none;stroke-dashoffset:0;stroke-opacity:1;-inkscape-stroke:none;stop-color:#000000" /><circle
         style="fill:#000000;fill-opacity:1;stroke:none;stroke-width:0.529169;stroke-opacity:1;paint-order:fill markers stroke"
         id="path2"
         cx="-65.245102"
         cy="119.118"
         r="24" /><path
         style="fill:none;fill-opacity:1;stroke:#000000;stroke-width:8;stroke-dasharray:none;stroke-opacity:1;paint-order:fill markers stroke"
         d="M -28.964325,-36.645877 V -100.64588 H 35.035677"
         id="path3" /></g></g></svg>
